<svg width="180" height="180" viewBox="0 0 8 8" fill="none" xmlns="http://www.w3.org/2000/svg">
  <!-- Row 0 -->
  <rect x="0" y="0" width="1" height="1" fill="#4a7227"/>
  <rect x="1" y="0" width="1" height="1" fill="#5c8e32"/>
  <rect x="2" y="0" width="1" height="1" fill="#3b5a1f"/>
  <rect x="3" y="0" width="1" height="1" fill="#5c8e32"/>
  <rect x="4" y="0" width="1" height="1" fill="#4a7227"/>
  <rect x="5" y="0" width="1" height="1" fill="#6fa33c"/>
  <rect x="6" y="0" width="1" height="1" fill="#3b5a1f"/>
  <rect x="7" y="0" width="1" height="1" fill="#5c8e32"/>

  <!-- Row 1 -->
  <rect x="0" y="1" width="1" height="1" fill="#5c8e32"/>
  <rect x="1" y="1" width="1" height="1" fill="#6fa33c"/>
  <rect x="2" y="1" width="1" height="1" fill="#4a7227"/>
  <rect x="3" y="1" width="1" height="1" fill="#3b5a1f"/>
  <rect x="4" y="1" width="1" height="1" fill="#5c8e32"/>
  <rect x="5" y="1" width="1" height="1" fill="#4a7227"/>
  <rect x="6" y="1" width="1" height="1" fill="#6fa33c"/>
  <rect x="7" y="1" width="1" height="1" fill="#3b5a1f"/>

  <!-- Row 2 (Eyes at 1,2 and 5,6) -->
  <rect x="0" y="2" width="1" height="1" fill="#3b5a1f"/>
  <rect x="1" y="2" width="1" height="1" fill="#1b1c19"/>
  <rect x="2" y="2" width="1" height="1" fill="#1b1c19"/>
  <rect x="3" y="2" width="1" height="1" fill="#4a7227"/>
  <rect x="4" y="2" width="1" height="1" fill="#5c8e32"/>
  <rect x="5" y="2" width="1" height="1" fill="#1b1c19"/>
  <rect x="6" y="2" width="1" height="1" fill="#1b1c19"/>
  <rect x="7" y="2" width="1" height="1" fill="#6fa33c"/>

  <!-- Row 3 (Eyes at 1,2 and 5,6) -->
  <rect x="0" y="3" width="1" height="1" fill="#5c8e32"/>
  <rect x="1" y="3" width="1" height="1" fill="#1b1c19"/>
  <rect x="2" y="3" width="1" height="1" fill="#1b1c19"/>
  <rect x="3" y="3" width="1" height="1" fill="#3b5a1f"/>
  <rect x="4" y="3" width="1" height="1" fill="#4a7227"/>
  <rect x="5" y="3" width="1" height="1" fill="#1b1c19"/>
  <rect x="6" y="3" width="1" height="1" fill="#1b1c19"/>
  <rect x="7" y="3" width="1" height="1" fill="#3b5a1f"/>

  <!-- Row 4 (Mouth nose bridge at 3,4) -->
  <rect x="0" y="4" width="1" height="1" fill="#4a7227"/>
  <rect x="1" y="4" width="1" height="1" fill="#5c8e32"/>
  <rect x="2" y="4" width="1" height="1" fill="#6fa33c"/>
  <rect x="3" y="4" width="1" height="1" fill="#1b1c19"/>
  <rect x="4" y="4" width="1" height="1" fill="#1b1c19"/>
  <rect x="5" y="4" width="1" height="1" fill="#5c8e32"/>
  <rect x="6" y="4" width="1" height="1" fill="#4a7227"/>
  <rect x="7" y="4" width="1" height="1" fill="#5c8e32"/>

  <!-- Row 5 (Mouth line at 2,3,4,5) -->
  <rect x="0" y="5" width="1" height="1" fill="#6fa33c"/>
  <rect x="1" y="5" width="1" height="1" fill="#3b5a1f"/>
  <rect x="2" y="5" width="1" height="1" fill="#1b1c19"/>
  <rect x="3" y="5" width="1" height="1" fill="#1b1c19"/>
  <rect x="4" y="5" width="1" height="1" fill="#1b1c19"/>
  <rect x="5" y="5" width="1" height="1" fill="#1b1c19"/>
  <rect x="6" y="5" width="1" height="1" fill="#5c8e32"/>
  <rect x="7" y="5" width="1" height="1" fill="#4a7227"/>

  <!-- Row 6 (Mouth corners at 2,5) -->
  <rect x="0" y="6" width="1" height="1" fill="#4a7227"/>
  <rect x="1" y="6" width="1" height="1" fill="#6fa33c"/>
  <rect x="2" y="6" width="1" height="1" fill="#1b1c19"/>
  <rect x="3" y="6" width="1" height="1" fill="#5c8e32"/>
  <rect x="4" y="6" width="1" height="1" fill="#3b5a1f"/>
  <rect x="5" y="6" width="1" height="1" fill="#1b1c19"/>
  <rect x="6" y="6" width="1" height="1" fill="#4a7227"/>
  <rect x="7" y="6" width="1" height="1" fill="#5c8e32"/>

  <!-- Row 7 -->
  <rect x="0" y="7" width="1" height="1" fill="#5c8e32"/>
  <rect x="1" y="7" width="1" height="1" fill="#3b5a1f"/>
  <rect x="2" y="7" width="1" height="1" fill="#4a7227"/>
  <rect x="3" y="7" width="1" height="1" fill="#6fa33c"/>
  <rect x="4" y="7" width="1" height="1" fill="#5c8e32"/>
  <rect x="5" y="7" width="1" height="1" fill="#3b5a1f"/>
  <rect x="6" y="7" width="1" height="1" fill="#5c8e32"/>
  <rect x="7" y="7" width="1" height="1" fill="#4a7227"/>
</svg>
